<?xml version="1.0" encoding="iso-8859-1"?>
<!-- Generator: Adobe Illustrator 19.0.0, SVG Export Plug-In . SVG Version: 6.00 Build 0)  -->
<svg version="1.1" id="Layer_1" xmlns="http://www.w3.org/2000/svg" xmlns:xlink="http://www.w3.org/1999/xlink" x="0px" y="0px"
	 viewBox="0 0 503.2 503.2" style="enable-background:new 0 0 503.2 503.2;" xml:space="preserve">
<path style="fill:#515191;" d="M424,152.359c3.2-5.6,6.4-10.4,10.4-15.2c-19.2-21.6-46.4-26.4-68.8-13.6l46.4,84
	C410.4,189.959,414.4,169.959,424,152.359z"/>
<g>
	<path style="fill:#3F3F72;" d="M434.4,248.359L434.4,248.359L434.4,248.359z"/>
	<path style="fill:#3F3F72;" d="M434.4,248.359L434.4,248.359L434.4,248.359z"/>
	<path style="fill:#3F3F72;" d="M456.8,207.559l46.4-84c-22.4-12-49.6-8-68.8,13.6c4,4,7.2,8.8,10.4,15.2
		C454.4,169.959,458.4,189.959,456.8,207.559z"/>
	<path style="fill:#3F3F72;" d="M170.4,273.959c-26.4,12.8-34.4,49.6-12.8,92c20.8,42.4,64,74.4,89.6,60.8L170.4,273.959z"/>
</g>
<path style="fill:#A6A6E2;" d="M0,251.559c0,72,73.6,134.4,193.6,134.4s240.8-62.4,240.8-134.4H0z"/>
<path style="fill:#8F8FCC;" d="M14.4,251.559c0,72,71.2,129.6,187.2,129.6s232.8-57.6,232.8-129.6H14.4z"/>
<path style="fill:#7B7BBA;" d="M30.4,251.559c0,64,68,124.8,180,124.8c111.2,0,224-60.8,224-124.8L30.4,251.559L30.4,251.559z"/>
<path style="fill:#6965A8;" d="M46.4,251.559c0,64,65.6,120,172.8,120s215.2-56,215.2-120H46.4z"/>
<path style="fill:#515191;" d="M83.2,251.559c0,56,59.2,108.8,156,108.8s195.2-52.8,195.2-108.8H83.2z"/>
<path style="fill:#3F3F72;" d="M153.6,251.559c0,48,47.2,87.2,124.8,87.2s156-39.2,156-87.2H153.6z"/>
<path style="fill:#6965A8;" d="M444.8,152.359c-3.2-5.6-6.4-10.4-10.4-15.2c-4,4-7.2,8.8-10.4,15.2c-9.6,16.8-13.6,37.6-12,55.2
	l22.4,40.8l0,0l0,0l22.4-40.8C458.4,189.959,454.4,169.959,444.8,152.359z"/>
<path style="fill:#515191;" d="M228.8,273.959c-24,36-7.2,89.6,51.2,128s137.6,48,160.8,12L228.8,273.959z"/>
<path style="fill:#3F3F72;" d="M262.4,295.559c-16.8,24.8-4.8,61.6,35.2,88s94.4,33.6,111.2,8L262.4,295.559z"/>
<circle style="fill:#FFFFFF;" cx="134.4" cy="269.959" r="6.4"/>
<rect x="117.225" y="149.498" transform="matrix(0.7071 -0.7071 0.7071 0.7071 -78.8323 144.6773)" style="fill:#19DAF4;" width="36" height="36"/>
<g>
	<polyline style="fill:#0FBCD3;" points="171.2,147.559 187.2,147.559 187.2,163.559 	"/>
	<polyline style="fill:#0FBCD3;" points="99.2,187.559 83.2,187.559 83.2,211.559 	"/>
</g>
<polyline style="fill:#00899B;" points="119.2,120.359 135.2,104.359 152,120.359 "/>
<polyline style="fill:#0FBCD3;" points="124,77.959 135.2,66.759 146.4,77.959 "/>
<polyline style="fill:#00899B;" points="124,232.359 135.2,221.159 146.4,232.359 "/>
<g>
	<circle style="fill:#A6A6E2;" cx="311.2" cy="277.159" r="6.4"/>
	<circle style="fill:#A6A6E2;" cx="336.8" cy="277.159" r="6.4"/>
	<circle style="fill:#A6A6E2;" cx="363.2" cy="277.159" r="6.4"/>
</g>
<g>
</g>
<g>
</g>
<g>
</g>
<g>
</g>
<g>
</g>
<g>
</g>
<g>
</g>
<g>
</g>
<g>
</g>
<g>
</g>
<g>
</g>
<g>
</g>
<g>
</g>
<g>
</g>
<g>
</g>
</svg>
