<?xml version="1.0" encoding="iso-8859-1"?>
<!-- Generator: Adobe Illustrator 19.0.0, SVG Export Plug-In . SVG Version: 6.00 Build 0)  -->
<svg version="1.1" id="Layer_1" xmlns="http://www.w3.org/2000/svg" xmlns:xlink="http://www.w3.org/1999/xlink" x="0px" y="0px"
	 viewBox="0 0 512 512" style="enable-background:new 0 0 512 512;" xml:space="preserve">
<g>
	<path style="fill:#F37934;" d="M240.835,288.625c-19.528,25.107-64.51,122.453-145.4,116.873
		c-80.901-5.579-89.27-58.583-89.27-58.583c13.948,0,69.015,22.068,75.603-22.828c8.684-59.159,90.377-62.252,90.377-62.252
		c-71.131-2.79-59.039-53.905-84.949-72.347C58.974,169.408,0,199.074,0,199.074c61.503-209.497,234.181,16.781,234.181,16.781
		c-13.21,10.377-21.59,21.862-21.59,33.954C212.591,263.822,223.847,277.022,240.835,288.625z"/>
	<path style="fill:#F37934;" d="M428.437,179.378c-14.969-6.111-31.88-9.997-50.67-9.997c-23.305,0-66.008,9.52-102.632,24.89
		c-41.444-46.708,4.982-63.815,13.981-63.945c17.596-0.25,43.321,0,97.02-20.928C439.834,88.48,428.437,179.378,428.437,179.378z"/>
	<path style="fill:#F37934;" d="M429.368,367.453c-24.999,18.138-117.351,11.875-116.58-2.725
		c1.042-19.81,9.965-31.783,19.549-40.586c17.161,3.929,32.673,6.09,43.777,6.09c23.023,0,43.224-5.84,60.483-14.437
		C442.437,324.305,453.422,346.091,429.368,367.453z"/>
</g>
<path style="fill:#FBA026;" d="M512,249.803c0,0-25.313,45.308-73.4,69.243c-17.27,8.608-37.471,14.448-60.494,14.448
	c-46.22,0-168.77-37.471-168.77-83.69c0-22.914,30.133-43.68,66.138-58.789c36.624-15.37,79.327-24.89,102.632-24.89
	c18.79,0,35.701,3.886,50.67,9.997C483.235,198.319,512,249.803,512,249.803z"/>
<path style="fill:#F37934;" d="M512,249.803c0,0-25.313,45.308-73.4,69.243h-0.011c-12.841-7.077-36.602-28.515-36.602-69.243
	s16.89-63.023,26.79-73.682C483.235,198.319,512,249.803,512,249.803z"/>
<circle style="fill:#CA463D;" cx="446.229" cy="238.903" r="8.684"/>
<g>
	<path style="fill:#F37934;" d="M363.809,226.055c-11.89,0-21.528-9.639-21.528-21.528c0-11.89,9.639-21.528,21.528-21.528V226.055z
		"/>
	<path style="fill:#F37934;" d="M363.809,269.113c-11.89,0-21.528-9.639-21.528-21.528c0-11.89,9.639-21.528,21.528-21.528V269.113z
		"/>
	<path style="fill:#F37934;" d="M363.809,312.169c-11.89,0-21.528-9.639-21.528-21.528c0-11.89,9.639-21.528,21.528-21.528V312.169z
		"/>
	<path style="fill:#F37934;" d="M304.107,233.808c-7.608,0-13.777-6.168-13.777-13.777c0-7.609,6.168-13.777,13.777-13.777V233.808z
		"/>
	<path style="fill:#F37934;" d="M304.107,261.361c-7.608,0-13.777-6.168-13.777-13.777c0-7.608,6.168-13.777,13.777-13.777V261.361z
		"/>
	<path style="fill:#F37934;" d="M304.107,288.913c-7.608,0-13.777-6.168-13.777-13.777c0-7.608,6.168-13.777,13.777-13.777V288.913z
		"/>
</g>
<g>
</g>
<g>
</g>
<g>
</g>
<g>
</g>
<g>
</g>
<g>
</g>
<g>
</g>
<g>
</g>
<g>
</g>
<g>
</g>
<g>
</g>
<g>
</g>
<g>
</g>
<g>
</g>
<g>
</g>
</svg>
