<?xml version="1.0" encoding="iso-8859-1"?>
<!-- Generator: Adobe Illustrator 19.0.0, SVG Export Plug-In . SVG Version: 6.00 Build 0)  -->
<svg version="1.1" id="Layer_1" xmlns="http://www.w3.org/2000/svg" xmlns:xlink="http://www.w3.org/1999/xlink" x="0px" y="0px"
	 viewBox="0 0 440 440" style="enable-background:new 0 0 440 440;" xml:space="preserve">
<g id="XMLID_5_">
	<g id="XMLID_334_">
		<path id="XMLID_76_" style="fill:#003778;" d="M231.347,258.215c0,0,15.604,48.488,63.68,54.606l-12.857-58.727L231.347,258.215z"
			/>
	</g>
	<g id="XMLID_337_">
		<path id="XMLID_74_" style="fill:#006DF0;" d="M140.114,245.156c0,0-4.172,50.766,37.887,74.844L200,260.83L140.114,245.156z"/>
	</g>
	<g id="XMLID_338_">
		<path id="XMLID_72_" style="fill:#003778;" d="M214.722,185.376c0,0,10.883-49.257,58.958-55.376c0,0-4.014,57.789-3.68,58.727
			C270.333,189.667,214.722,185.376,214.722,185.376z"/>
	</g>
	<path id="XMLID_340_" style="fill:#003778;" d="M440,140c-20,0-60,80-60,80v10v10c0,0,40,80,60,80c0,0-20-40-20-90S440,140,440,140
		z"/>
	<g id="XMLID_341_">
		<polygon id="XMLID_348_" style="fill:#006DF0;" points="120,170 140,120 220,170.744 		"/>
	</g>
	<g id="XMLID_350_">
		<path id="XMLID_351_" style="fill:#AED5F3;" d="M410,230c0,0-188.203,70-260,70C40,300,0,230,0,230s40-70,150-70
			C221.797,160,410,230,410,230z"/>
	</g>
	<path id="XMLID_352_" style="fill:#78B9EB;" d="M220,230v59.277C303.358,269.663,410,230,410,230H220z"/>
	<path id="XMLID_439_" style="fill:#FFE98F;" d="M135.909,230H230v-30l-202.792,0.001C7.203,215.684,0,230,0,230h115H135.909z"/>
	<path id="XMLID_440_" style="fill:#006DF0;" d="M220,200h102.7c-32.434-10.422-69.421-21.447-102.7-29.277L220,200L220,200z"/>
	<path id="XMLID_441_" style="fill:#78B9EB;" d="M220,200v-29.277C192.621,164.281,167.751,160,150,160
		c-60.254,0-99.503,21.003-122.682,40H220z"/>
	<path id="XMLID_443_" style="fill:#78B9EB;" d="M130,230h-20c0,24.408-12.565,45.926-31.558,58.457
		c7.295,2.572,15.163,4.829,23.634,6.649C119.271,278.706,130,255.582,130,230z"/>
	<g id="XMLID_444_">
		<circle id="XMLID_445_" style="fill:#001B3C;" cx="69.999" cy="220" r="10"/>
	</g>
	<path id="XMLID_446_" style="fill:#FFDA44;" d="M220,230h190c0,0-38.492-14.316-87.3-30H220V230z"/>
</g>
<g>
</g>
<g>
</g>
<g>
</g>
<g>
</g>
<g>
</g>
<g>
</g>
<g>
</g>
<g>
</g>
<g>
</g>
<g>
</g>
<g>
</g>
<g>
</g>
<g>
</g>
<g>
</g>
<g>
</g>
</svg>
